<svg xmlns="http://www.w3.org/2000/svg" viewBox="0 0 900 520" width="900" height="520">
  <defs>
    <linearGradient id="g40" x1="0" y1="0" x2="1" y2="1">
      <stop offset="0%" stop-color="#D6DDF5"/><stop offset="52%" stop-color="#6E7FC4"/><stop offset="100%" stop-color="#2A3670"/>
    </linearGradient>
    <radialGradient id="glow40" cx="50%" cy="40%" r="62%">
      <stop offset="0%" stop-color="#FFFFFF" stop-opacity=".55"/><stop offset="100%" stop-color="#FFFFFF" stop-opacity="0"/>
    </radialGradient>
    <linearGradient id="ray40" x1="0" y1="1" x2="0" y2="0">
      <stop offset="0%" stop-color="#FFF6DC" stop-opacity=".9"/><stop offset="100%" stop-color="#FFF6DC" stop-opacity="0"/>
    </linearGradient>
  </defs>
  <rect width="900" height="520" fill="url(#g40)"/>
  <path d="M450 218.4 L410 -181.6 L490 -181.6 Z" transform="rotate(0 450 218.4)" fill="url(#ray40)" opacity=".28"/><path d="M450 218.4 L410 -181.6 L490 -181.6 Z" transform="rotate(30 450 218.4)" fill="url(#ray40)" opacity=".28"/><path d="M450 218.4 L410 -181.6 L490 -181.6 Z" transform="rotate(60 450 218.4)" fill="url(#ray40)" opacity=".28"/><path d="M450 218.4 L410 -181.6 L490 -181.6 Z" transform="rotate(90 450 218.4)" fill="url(#ray40)" opacity=".28"/><path d="M450 218.4 L410 -181.6 L490 -181.6 Z" transform="rotate(120 450 218.4)" fill="url(#ray40)" opacity=".28"/><path d="M450 218.4 L410 -181.6 L490 -181.6 Z" transform="rotate(150 450 218.4)" fill="url(#ray40)" opacity=".28"/><path d="M450 218.4 L410 -181.6 L490 -181.6 Z" transform="rotate(180 450 218.4)" fill="url(#ray40)" opacity=".28"/><path d="M450 218.4 L410 -181.6 L490 -181.6 Z" transform="rotate(210 450 218.4)" fill="url(#ray40)" opacity=".28"/><path d="M450 218.4 L410 -181.6 L490 -181.6 Z" transform="rotate(240 450 218.4)" fill="url(#ray40)" opacity=".28"/><path d="M450 218.4 L410 -181.6 L490 -181.6 Z" transform="rotate(270 450 218.4)" fill="url(#ray40)" opacity=".28"/><path d="M450 218.4 L410 -181.6 L490 -181.6 Z" transform="rotate(300 450 218.4)" fill="url(#ray40)" opacity=".28"/><path d="M450 218.4 L410 -181.6 L490 -181.6 Z" transform="rotate(330 450 218.4)" fill="url(#ray40)" opacity=".28"/>
  <rect width="900" height="520" fill="url(#glow40)"/>
  <g opacity=".33" stroke="#FFF6DC" fill="none" stroke-width="1.6">
    <circle cx="450" cy="218.4" r="324"/>
    <circle cx="450" cy="218.4" r="270" stroke-dasharray="6 12"/>
    <circle cx="450" cy="218.4" r="207"/>
  </g>
  <g transform="translate(250 18.400000000000006) scale(2)" color="#FFF8E6" opacity=".92"><g fill="none" stroke="currentColor" stroke-width="3.4" stroke-linecap="round" stroke-linejoin="round">
    <path d="M100 76c-14-12-34-16-52-14v76c18-2 38 2 52 14 14-12 34-16 52-14V62c-18-2-38 2-52 14z"/>
    <path d="M100 76v76"/><path d="M64 88h22M64 104h22M114 88h22M114 104h22" stroke-width="2.4"/></g></g>
  <g opacity=".5" fill="none" stroke="#FFF6DC" stroke-width="1.4">
    <path d="M0 416 Q 450 374.4 900 416"/>
    <path d="M0 442 Q 450 400.40000000000003 900 442" stroke-dasharray="5 10"/>
  </g>
  <g opacity=".22" fill="#2B1B47">
    <rect y="516" width="900" height="4"/>
  </g>
</svg>
