<svg xmlns="http://www.w3.org/2000/svg" viewBox="0 0 900 560" width="900" height="560">
  <defs>
    <linearGradient id="g14" x1="0" y1="0" x2="1" y2="1">
      <stop offset="0%" stop-color="#DCEBCF"/><stop offset="52%" stop-color="#7FA85C"/><stop offset="100%" stop-color="#3D5F2A"/>
    </linearGradient>
    <radialGradient id="glow14" cx="50%" cy="40%" r="62%">
      <stop offset="0%" stop-color="#FFFFFF" stop-opacity=".55"/><stop offset="100%" stop-color="#FFFFFF" stop-opacity="0"/>
    </radialGradient>
    <linearGradient id="ray14" x1="0" y1="1" x2="0" y2="0">
      <stop offset="0%" stop-color="#FFF6DC" stop-opacity=".9"/><stop offset="100%" stop-color="#FFF6DC" stop-opacity="0"/>
    </linearGradient>
  </defs>
  <rect width="900" height="560" fill="url(#g14)"/>
  <path d="M450 235.2 L410 -164.8 L490 -164.8 Z" transform="rotate(0 450 235.2)" fill="url(#ray14)" opacity=".28"/><path d="M450 235.2 L410 -164.8 L490 -164.8 Z" transform="rotate(30 450 235.2)" fill="url(#ray14)" opacity=".28"/><path d="M450 235.2 L410 -164.8 L490 -164.8 Z" transform="rotate(60 450 235.2)" fill="url(#ray14)" opacity=".28"/><path d="M450 235.2 L410 -164.8 L490 -164.8 Z" transform="rotate(90 450 235.2)" fill="url(#ray14)" opacity=".28"/><path d="M450 235.2 L410 -164.8 L490 -164.8 Z" transform="rotate(120 450 235.2)" fill="url(#ray14)" opacity=".28"/><path d="M450 235.2 L410 -164.8 L490 -164.8 Z" transform="rotate(150 450 235.2)" fill="url(#ray14)" opacity=".28"/><path d="M450 235.2 L410 -164.8 L490 -164.8 Z" transform="rotate(180 450 235.2)" fill="url(#ray14)" opacity=".28"/><path d="M450 235.2 L410 -164.8 L490 -164.8 Z" transform="rotate(210 450 235.2)" fill="url(#ray14)" opacity=".28"/><path d="M450 235.2 L410 -164.8 L490 -164.8 Z" transform="rotate(240 450 235.2)" fill="url(#ray14)" opacity=".28"/><path d="M450 235.2 L410 -164.8 L490 -164.8 Z" transform="rotate(270 450 235.2)" fill="url(#ray14)" opacity=".28"/><path d="M450 235.2 L410 -164.8 L490 -164.8 Z" transform="rotate(300 450 235.2)" fill="url(#ray14)" opacity=".28"/><path d="M450 235.2 L410 -164.8 L490 -164.8 Z" transform="rotate(330 450 235.2)" fill="url(#ray14)" opacity=".28"/>
  <rect width="900" height="560" fill="url(#glow14)"/>
  <g opacity=".33" stroke="#FFF6DC" fill="none" stroke-width="1.6">
    <circle cx="450" cy="235.2" r="324"/>
    <circle cx="450" cy="235.2" r="270" stroke-dasharray="6 12"/>
    <circle cx="450" cy="235.2" r="207"/>
  </g>
  <g transform="translate(250 35.19999999999999) scale(2)" color="#FFF8E6" opacity=".92"><g fill="none" stroke="currentColor" stroke-width="3.4" stroke-linecap="round" stroke-linejoin="round">
    <path d="M56 96c0-18 20-30 44-30s44 12 44 30c0 26-18 44-44 44S56 122 56 96z"/>
    <path d="M56 92c-12-14-16-30-10-40 12 0 22 10 26 22M144 92c12-14 16-30 10-40-12 0-22 10-26 22"/>
    <circle cx="84" cy="98" r="4" fill="currentColor"/><circle cx="116" cy="98" r="4" fill="currentColor"/>
    <path d="M86 120c8 6 20 6 28 0"/><path d="M74 148v18M126 148v18"/></g></g>
  <g opacity=".5" fill="none" stroke="#FFF6DC" stroke-width="1.4">
    <path d="M0 448 Q 450 403.2 900 448"/>
    <path d="M0 476 Q 450 431.2 900 476" stroke-dasharray="5 10"/>
  </g>
  <g opacity=".22" fill="#2B1B47">
    <rect y="556" width="900" height="4"/>
  </g>
</svg>
